<?xml version="1.0" encoding="utf-8"?>
<!-- Generator: Adobe Illustrator 26.1.0, SVG Export Plug-In . SVG Version: 6.00 Build 0)  -->
<svg version="1.1" id="Capa_1" xmlns="http://www.w3.org/2000/svg" xmlns:xlink="http://www.w3.org/1999/xlink" x="0px" y="0px"
	 viewBox="0 0 580.6 580.9" style="enable-background:new 0 0 580.6 580.9;" xml:space="preserve">
<style type="text/css">
	.st0{fill:#FFCE00;}
	.st1{fill:#131C4E;}
	.st2{fill-rule:evenodd;clip-rule:evenodd;fill:#FFFFFF;}
</style>
<g>
	<g>
		<circle class="st0" cx="289.7" cy="291.2" r="289.7"/>
		<g>
			<path class="st1" d="M491,442.1c1.9,3.8,2.7,6.1,2.3,6.9c-0.4,0.8-1.9,1.1-4.6,1.1h-107c-1.5,0-2.9-0.3-4-0.9
				c-1.1-0.6-2.1-1.8-2.9-3.7c-3.4-7.6-7.1-16.2-10.9-25.7s-7.3-17.9-10.3-25.2H215.3c-3.4,8-6.9,16.5-10.3,25.4
				c-3.4,9-6.7,16.9-9.7,23.7c-0.8,2.3-1.7,3.9-2.9,4.9c-1.1,1-3.6,1.4-7.4,1.4H90.1c-4.2,0-5.1-2.7-2.9-8c9.9-21,20.6-43.4,32-67.2
				s23.1-47.9,34.9-72.4c11.8-24.4,23.7-48.7,35.8-72.9c12-24.2,23.5-47.3,34.6-69.2c11.1-21.9,21.4-42.3,31.2-61.2
				c9.7-18.9,18.4-35.4,26-49.5c0.4-0.8,2.7-1.1,6.9-1.1c4.2,0,6.5,0.4,6.9,1.1c13,25.5,27.5,54.4,43.8,86.6
				c16.2,32.2,32.9,65.7,50,100.4c17.2,34.7,34.5,69.7,52.1,104.9C458.8,377,475.4,410.5,491,442.1z M282.8,233.4l-51,116.3h105.8
				L282.8,233.4z"/>
		</g>
		<path class="st2" d="M572.8,153.2c-9.2-15.7-198.1,61.3-286.3,190.4c-0.9,1.4-1.9,2.8-2.8,4.2c-12.9-22.2-19-34.4-29.4-49.7
			c-17-25.5-73.5-11.8-73.5,27.1c38.6,95.9,76.4,141.1,105.7,148.5c20.4,5.1,36.7-8.1,46.2-35.3C417,235.7,582.2,169.1,572.8,153.2z
			"/>
	</g>
</g>
</svg>
